<svg width="1434" height="82" viewBox="0 0 1434 82" fill="none" xmlns="http://www.w3.org/2000/svg">
<mask id="path-1-outside-1_1043_6151" maskUnits="userSpaceOnUse" x="459.81" y="13.8" width="505" height="55" fill="black">
<rect fill="white" x="459.81" y="13.8" width="505" height="55"/>
<path d="M491.336 16.8351V52.1321C491.336 56.5002 489.998 59.9524 487.321 62.4888C484.69 65.0251 481.215 66.2932 476.893 66.2932C472.572 66.2932 469.073 65.0251 466.396 62.4888C463.766 59.9524 462.451 56.5002 462.451 52.1321H470.553C470.6 54.2927 471.14 56.0071 472.173 57.2752C473.253 58.5434 474.827 59.1775 476.893 59.1775C478.96 59.1775 480.534 58.5434 481.614 57.2752C482.694 55.9601 483.234 54.2457 483.234 52.1321V16.8351H491.336ZM526.736 66.2932C522.18 66.2932 517.976 65.2364 514.125 63.1228C510.32 60.9623 507.291 57.9798 505.036 54.1753C502.829 50.3238 501.725 46.0027 501.725 41.2119C501.725 36.4211 502.829 32.1235 505.036 28.319C507.291 24.5145 510.32 21.5555 514.125 19.4419C517.976 17.2813 522.18 16.201 526.736 16.201C531.339 16.201 535.542 17.2813 539.347 19.4419C543.198 21.5555 546.228 24.5145 548.435 28.319C550.643 32.1235 551.747 36.4211 551.747 41.2119C551.747 46.0027 550.643 50.3238 548.435 54.1753C546.228 57.9798 543.198 60.9623 539.347 63.1228C535.542 65.2364 531.339 66.2932 526.736 66.2932ZM526.736 59.3184C529.977 59.3184 532.865 58.5903 535.401 57.1343C537.938 55.6313 539.91 53.5177 541.32 50.7935C542.776 48.0224 543.504 44.8285 543.504 41.2119C543.504 37.5953 542.776 34.4249 541.32 31.7007C539.91 28.9765 537.938 26.8864 535.401 25.4304C532.865 23.9744 529.977 23.2464 526.736 23.2464C523.495 23.2464 520.606 23.9744 518.07 25.4304C515.534 26.8864 513.538 28.9765 512.081 31.7007C510.672 34.4249 509.968 37.5953 509.968 41.2119C509.968 44.8285 510.672 48.0224 512.081 50.7935C513.538 53.5177 515.534 55.6313 518.07 57.1343C520.606 58.5903 523.495 59.3184 526.736 59.3184ZM567.682 16.8351V65.8H559.65V16.8351H567.682ZM618.455 65.8H610.424L586.258 29.2349V65.8H578.227V16.7647H586.258L610.424 53.2594V16.7647H618.455V65.8ZM655.265 16.8351V48.0459C655.265 51.7564 656.228 54.551 658.153 56.4298C660.126 58.3085 662.85 59.2479 666.326 59.2479C669.849 59.2479 672.573 58.3085 674.498 56.4298C676.471 54.551 677.458 51.7564 677.458 48.0459V16.8351H685.489V47.905C685.489 51.8973 684.62 55.279 682.882 58.0502C681.145 60.8214 678.82 62.888 675.908 64.2501C672.996 65.6122 669.778 66.2932 666.255 66.2932C662.733 66.2932 659.515 65.6122 656.603 64.2501C653.738 62.888 651.46 60.8214 649.769 58.0502C648.079 55.279 647.233 51.8973 647.233 47.905V16.8351H655.265ZM712.08 66.2932C708.792 66.2932 705.833 65.7296 703.203 64.6023C700.573 63.4281 698.506 61.7842 697.003 59.6706C695.5 57.557 694.749 55.0912 694.749 52.273H703.344C703.532 54.3866 704.354 56.1245 705.81 57.4866C707.313 58.8487 709.403 59.5297 712.08 59.5297C714.851 59.5297 717.012 58.8722 718.562 57.557C720.112 56.1949 720.887 54.4571 720.887 52.3435C720.887 50.6996 720.394 49.361 719.407 48.3277C718.468 47.2944 717.27 46.4959 715.814 45.9323C714.405 45.3686 712.433 44.758 709.896 44.1005C706.702 43.255 704.096 42.4096 702.076 41.5642C700.103 40.6718 698.412 39.3097 697.003 37.4779C695.594 35.6461 694.89 33.2037 694.89 30.1508C694.89 27.3326 695.594 24.8668 697.003 22.7532C698.412 20.6396 700.385 19.0192 702.921 17.8919C705.458 16.7647 708.393 16.201 711.728 16.201C716.472 16.201 720.347 17.3987 723.353 19.7942C726.406 22.1426 728.097 25.3834 728.425 29.5167H719.548C719.407 27.7319 718.562 26.2054 717.012 24.9372C715.462 23.6691 713.419 23.035 710.883 23.035C708.581 23.035 706.702 23.6221 705.246 24.7963C703.79 25.9705 703.062 27.6614 703.062 29.869C703.062 31.372 703.508 32.6166 704.401 33.603C705.34 34.5423 706.514 35.2938 707.924 35.8575C709.333 36.4211 711.258 37.0317 713.701 37.6893C716.942 38.5817 719.572 39.4741 721.591 40.3665C723.658 41.2589 725.396 42.6445 726.805 44.5232C728.261 46.355 728.989 48.8208 728.989 51.9208C728.989 54.4101 728.308 56.7586 726.946 58.9661C725.631 61.1736 723.682 62.9584 721.098 64.3205C718.562 65.6357 715.556 66.2932 712.08 66.2932ZM961.552 16.8351L960.636 51.0049H953.943L953.027 16.8351H961.552ZM957.536 66.2932C956.08 66.2932 954.858 65.8 953.872 64.8137C952.886 63.8274 952.393 62.6062 952.393 61.1501C952.393 59.6941 952.886 58.4729 953.872 57.4866C954.858 56.5002 956.08 56.0071 957.536 56.0071C958.945 56.0071 960.142 56.5002 961.129 57.4866C962.115 58.4729 962.608 59.6941 962.608 61.1501C962.608 62.6062 962.115 63.8274 961.129 64.8137C960.142 65.8 958.945 66.2932 957.536 66.2932Z"/>
<path d="M796.996 65.8H788.964L764.799 29.2349V65.8H756.767V16.7647H764.799L788.964 53.2594V16.7647H796.996V65.8ZM829.877 66.2932C825.321 66.2932 821.117 65.2364 817.266 63.1228C813.461 60.9623 810.432 57.9798 808.177 54.1753C805.97 50.3238 804.866 46.0027 804.866 41.2119C804.866 36.4211 805.97 32.1235 808.177 28.319C810.432 24.5145 813.461 21.5555 817.266 19.4419C821.117 17.2813 825.321 16.201 829.877 16.201C834.48 16.201 838.683 17.2813 842.488 19.4419C846.339 21.5555 849.369 24.5145 851.576 28.319C853.784 32.1235 854.888 36.4211 854.888 41.2119C854.888 46.0027 853.784 50.3238 851.576 54.1753C849.369 57.9798 846.339 60.9623 842.488 63.1228C838.683 65.2364 834.48 66.2932 829.877 66.2932ZM829.877 59.3184C833.118 59.3184 836.006 58.5903 838.543 57.1343C841.079 55.6313 843.052 53.5177 844.461 50.7935C845.917 48.0224 846.645 44.8285 846.645 41.2119C846.645 37.5953 845.917 34.4249 844.461 31.7007C843.052 28.9765 841.079 26.8864 838.543 25.4304C836.006 23.9744 833.118 23.2464 829.877 23.2464C826.636 23.2464 823.747 23.9744 821.211 25.4304C818.675 26.8864 816.679 28.9765 815.223 31.7007C813.813 34.4249 813.109 37.5953 813.109 41.2119C813.109 44.8285 813.813 48.0224 815.223 50.7935C816.679 53.5177 818.675 55.6313 821.211 57.1343C823.747 58.5903 826.636 59.3184 829.877 59.3184ZM926.551 16.8351L912.038 65.8H902.949L892.663 28.7417L881.743 65.8L872.725 65.8705L858.846 16.8351H867.371L877.516 56.7116L888.506 16.8351H897.524L907.74 56.5002L917.956 16.8351H926.551Z"/>
</mask>
<path d="M491.336 16.8351V52.1321C491.336 56.5002 489.998 59.9524 487.321 62.4888C484.69 65.0251 481.215 66.2932 476.893 66.2932C472.572 66.2932 469.073 65.0251 466.396 62.4888C463.766 59.9524 462.451 56.5002 462.451 52.1321H470.553C470.6 54.2927 471.14 56.0071 472.173 57.2752C473.253 58.5434 474.827 59.1775 476.893 59.1775C478.96 59.1775 480.534 58.5434 481.614 57.2752C482.694 55.9601 483.234 54.2457 483.234 52.1321V16.8351H491.336ZM526.736 66.2932C522.18 66.2932 517.976 65.2364 514.125 63.1228C510.32 60.9623 507.291 57.9798 505.036 54.1753C502.829 50.3238 501.725 46.0027 501.725 41.2119C501.725 36.4211 502.829 32.1235 505.036 28.319C507.291 24.5145 510.32 21.5555 514.125 19.4419C517.976 17.2813 522.18 16.201 526.736 16.201C531.339 16.201 535.542 17.2813 539.347 19.4419C543.198 21.5555 546.228 24.5145 548.435 28.319C550.643 32.1235 551.747 36.4211 551.747 41.2119C551.747 46.0027 550.643 50.3238 548.435 54.1753C546.228 57.9798 543.198 60.9623 539.347 63.1228C535.542 65.2364 531.339 66.2932 526.736 66.2932ZM526.736 59.3184C529.977 59.3184 532.865 58.5903 535.401 57.1343C537.938 55.6313 539.91 53.5177 541.32 50.7935C542.776 48.0224 543.504 44.8285 543.504 41.2119C543.504 37.5953 542.776 34.4249 541.32 31.7007C539.91 28.9765 537.938 26.8864 535.401 25.4304C532.865 23.9744 529.977 23.2464 526.736 23.2464C523.495 23.2464 520.606 23.9744 518.07 25.4304C515.534 26.8864 513.538 28.9765 512.081 31.7007C510.672 34.4249 509.968 37.5953 509.968 41.2119C509.968 44.8285 510.672 48.0224 512.081 50.7935C513.538 53.5177 515.534 55.6313 518.07 57.1343C520.606 58.5903 523.495 59.3184 526.736 59.3184ZM567.682 16.8351V65.8H559.65V16.8351H567.682ZM618.455 65.8H610.424L586.258 29.2349V65.8H578.227V16.7647H586.258L610.424 53.2594V16.7647H618.455V65.8ZM655.265 16.8351V48.0459C655.265 51.7564 656.228 54.551 658.153 56.4298C660.126 58.3085 662.85 59.2479 666.326 59.2479C669.849 59.2479 672.573 58.3085 674.498 56.4298C676.471 54.551 677.458 51.7564 677.458 48.0459V16.8351H685.489V47.905C685.489 51.8973 684.62 55.279 682.882 58.0502C681.145 60.8214 678.82 62.888 675.908 64.2501C672.996 65.6122 669.778 66.2932 666.255 66.2932C662.733 66.2932 659.515 65.6122 656.603 64.2501C653.738 62.888 651.46 60.8214 649.769 58.0502C648.079 55.279 647.233 51.8973 647.233 47.905V16.8351H655.265ZM712.08 66.2932C708.792 66.2932 705.833 65.7296 703.203 64.6023C700.573 63.4281 698.506 61.7842 697.003 59.6706C695.5 57.557 694.749 55.0912 694.749 52.273H703.344C703.532 54.3866 704.354 56.1245 705.81 57.4866C707.313 58.8487 709.403 59.5297 712.08 59.5297C714.851 59.5297 717.012 58.8722 718.562 57.557C720.112 56.1949 720.887 54.4571 720.887 52.3435C720.887 50.6996 720.394 49.361 719.407 48.3277C718.468 47.2944 717.27 46.4959 715.814 45.9323C714.405 45.3686 712.433 44.758 709.896 44.1005C706.702 43.255 704.096 42.4096 702.076 41.5642C700.103 40.6718 698.412 39.3097 697.003 37.4779C695.594 35.6461 694.89 33.2037 694.89 30.1508C694.89 27.3326 695.594 24.8668 697.003 22.7532C698.412 20.6396 700.385 19.0192 702.921 17.8919C705.458 16.7647 708.393 16.201 711.728 16.201C716.472 16.201 720.347 17.3987 723.353 19.7942C726.406 22.1426 728.097 25.3834 728.425 29.5167H719.548C719.407 27.7319 718.562 26.2054 717.012 24.9372C715.462 23.6691 713.419 23.035 710.883 23.035C708.581 23.035 706.702 23.6221 705.246 24.7963C703.79 25.9705 703.062 27.6614 703.062 29.869C703.062 31.372 703.508 32.6166 704.401 33.603C705.34 34.5423 706.514 35.2938 707.924 35.8575C709.333 36.4211 711.258 37.0317 713.701 37.6893C716.942 38.5817 719.572 39.4741 721.591 40.3665C723.658 41.2589 725.396 42.6445 726.805 44.5232C728.261 46.355 728.989 48.8208 728.989 51.9208C728.989 54.4101 728.308 56.7586 726.946 58.9661C725.631 61.1736 723.682 62.9584 721.098 64.3205C718.562 65.6357 715.556 66.2932 712.08 66.2932ZM961.552 16.8351L960.636 51.0049H953.943L953.027 16.8351H961.552ZM957.536 66.2932C956.08 66.2932 954.858 65.8 953.872 64.8137C952.886 63.8274 952.393 62.6062 952.393 61.1501C952.393 59.6941 952.886 58.4729 953.872 57.4866C954.858 56.5002 956.08 56.0071 957.536 56.0071C958.945 56.0071 960.142 56.5002 961.129 57.4866C962.115 58.4729 962.608 59.6941 962.608 61.1501C962.608 62.6062 962.115 63.8274 961.129 64.8137C960.142 65.8 958.945 66.2932 957.536 66.2932Z" fill="#2E2C36"/>
<path d="M796.996 65.8H788.964L764.799 29.2349V65.8H756.767V16.7647H764.799L788.964 53.2594V16.7647H796.996V65.8ZM829.877 66.2932C825.321 66.2932 821.117 65.2364 817.266 63.1228C813.461 60.9623 810.432 57.9798 808.177 54.1753C805.97 50.3238 804.866 46.0027 804.866 41.2119C804.866 36.4211 805.97 32.1235 808.177 28.319C810.432 24.5145 813.461 21.5555 817.266 19.4419C821.117 17.2813 825.321 16.201 829.877 16.201C834.48 16.201 838.683 17.2813 842.488 19.4419C846.339 21.5555 849.369 24.5145 851.576 28.319C853.784 32.1235 854.888 36.4211 854.888 41.2119C854.888 46.0027 853.784 50.3238 851.576 54.1753C849.369 57.9798 846.339 60.9623 842.488 63.1228C838.683 65.2364 834.48 66.2932 829.877 66.2932ZM829.877 59.3184C833.118 59.3184 836.006 58.5903 838.543 57.1343C841.079 55.6313 843.052 53.5177 844.461 50.7935C845.917 48.0224 846.645 44.8285 846.645 41.2119C846.645 37.5953 845.917 34.4249 844.461 31.7007C843.052 28.9765 841.079 26.8864 838.543 25.4304C836.006 23.9744 833.118 23.2464 829.877 23.2464C826.636 23.2464 823.747 23.9744 821.211 25.4304C818.675 26.8864 816.679 28.9765 815.223 31.7007C813.813 34.4249 813.109 37.5953 813.109 41.2119C813.109 44.8285 813.813 48.0224 815.223 50.7935C816.679 53.5177 818.675 55.6313 821.211 57.1343C823.747 58.5903 826.636 59.3184 829.877 59.3184ZM926.551 16.8351L912.038 65.8H902.949L892.663 28.7417L881.743 65.8L872.725 65.8705L858.846 16.8351H867.371L877.516 56.7116L888.506 16.8351H897.524L907.74 56.5002L917.956 16.8351H926.551Z" fill="#FF6F00"/>
<path d="M491.336 16.8351H493.336V14.8351H491.336V16.8351ZM487.321 62.4888L485.945 61.0368L485.939 61.0429L485.932 61.0491L487.321 62.4888ZM466.396 62.4888L465.008 63.9284L465.014 63.9346L465.02 63.9407L466.396 62.4888ZM462.451 52.1321V50.1321H460.451V52.1321H462.451ZM470.553 52.1321L472.552 52.0887L472.51 50.1321H470.553V52.1321ZM472.173 57.2752L470.623 58.5386L470.636 58.5555L470.651 58.5722L472.173 57.2752ZM481.614 57.2752L483.136 58.5722L483.148 58.5585L483.159 58.5447L481.614 57.2752ZM483.234 16.8351V14.8351H481.234V16.8351H483.234ZM489.336 16.8351V52.1321H493.336V16.8351H489.336ZM489.336 52.1321C489.336 56.0609 488.15 58.9476 485.945 61.0368L488.696 63.9407C491.845 60.9572 493.336 56.9396 493.336 52.1321H489.336ZM485.932 61.0491C483.742 63.1614 480.798 64.2932 476.893 64.2932V68.2932C481.631 68.2932 485.639 66.8888 488.709 63.9284L485.932 61.0491ZM476.893 64.2932C472.99 64.2932 470.014 63.1615 467.771 61.0368L465.02 63.9407C468.132 66.8886 472.155 68.2932 476.893 68.2932V64.2932ZM467.784 61.0491C465.62 58.9623 464.451 56.0716 464.451 52.1321H460.451C460.451 56.9289 461.911 60.9425 465.008 63.9284L467.784 61.0491ZM462.451 54.1321H470.553V50.1321H462.451V54.1321ZM468.553 52.1756C468.607 54.6384 469.229 56.8285 470.623 58.5386L473.724 56.0119C473.05 55.1856 472.593 53.9471 472.552 52.0887L468.553 52.1756ZM470.651 58.5722C472.2 60.3912 474.394 61.1775 476.893 61.1775V57.1775C475.26 57.1775 474.307 56.6956 473.696 55.9783L470.651 58.5722ZM476.893 61.1775C479.393 61.1775 481.587 60.3912 483.136 58.5722L480.091 55.9783C479.48 56.6956 478.527 57.1775 476.893 57.1775V61.1775ZM483.159 58.5447C484.599 56.7919 485.234 54.5935 485.234 52.1321H481.234C481.234 53.898 480.789 55.1283 480.068 56.0057L483.159 58.5447ZM485.234 52.1321V16.8351H481.234V52.1321H485.234ZM483.234 18.8351H491.336V14.8351H483.234V18.8351ZM514.125 63.1228L513.137 64.862L513.15 64.8691L513.162 64.8762L514.125 63.1228ZM505.036 54.1753L503.301 55.1698L503.308 55.1824L503.316 55.1949L505.036 54.1753ZM505.036 28.319L503.316 27.2994L503.311 27.3073L503.306 27.3152L505.036 28.319ZM514.125 19.4419L515.096 21.1902L515.103 21.1862L514.125 19.4419ZM539.347 19.4419L538.359 21.181L538.372 21.1882L538.385 21.1952L539.347 19.4419ZM548.435 28.319L546.705 29.3227L548.435 28.319ZM548.435 54.1753L550.165 55.1791L550.17 55.1698L548.435 54.1753ZM539.347 63.1228L540.318 64.8712L540.325 64.8671L539.347 63.1228ZM535.401 57.1343L536.397 58.8688L536.409 58.8619L536.421 58.8549L535.401 57.1343ZM541.32 50.7935L539.549 49.8633L539.543 49.8747L541.32 50.7935ZM541.32 31.7007L539.543 32.6196L539.549 32.6316L539.556 32.6435L541.32 31.7007ZM535.401 25.4304L534.406 27.1649L535.401 25.4304ZM518.07 25.4304L519.066 27.1649L518.07 25.4304ZM512.081 31.7007L510.318 30.758L510.311 30.7699L510.305 30.7819L512.081 31.7007ZM512.081 50.7935L510.299 51.7L510.308 51.7183L510.318 51.7363L512.081 50.7935ZM518.07 57.1343L517.05 58.8549L517.062 58.8619L517.074 58.8688L518.07 57.1343ZM526.736 64.2932C522.503 64.2932 518.632 63.3151 515.087 61.3695L513.162 64.8762C517.32 67.1577 521.856 68.2932 526.736 68.2932V64.2932ZM515.112 61.3837C511.614 59.397 508.836 56.664 506.757 53.1557L503.316 55.1949C505.746 59.2955 509.026 62.5275 513.137 64.862L515.112 61.3837ZM506.771 53.1807C504.751 49.6558 503.725 45.6823 503.725 41.2119H499.725C499.725 46.3231 500.906 50.9918 503.301 55.1698L506.771 53.1807ZM503.725 41.2119C503.725 36.7412 504.751 32.7954 506.766 29.3227L503.306 27.3152C500.906 31.4515 499.725 36.1009 499.725 41.2119H503.725ZM506.757 29.3386C508.834 25.834 511.607 23.1287 515.096 21.1902L513.153 17.6936C509.034 19.9823 505.748 23.195 503.316 27.2994L506.757 29.3386ZM515.103 21.1862C518.646 19.1987 522.511 18.201 526.736 18.201V14.201C521.848 14.201 517.306 15.3639 513.146 17.6976L515.103 21.1862ZM526.736 18.201C531.011 18.201 534.872 19.2004 538.359 21.181L540.334 17.7028C536.213 15.3622 531.666 14.201 526.736 14.201V18.201ZM538.385 21.1952C541.916 23.1333 544.68 25.833 546.705 29.3227L550.165 27.3152C547.775 23.196 544.48 19.9776 540.309 17.6886L538.385 21.1952ZM546.705 29.3227C548.72 32.7954 549.747 36.7412 549.747 41.2119H553.747C553.747 36.1009 552.565 31.4515 550.165 27.3152L546.705 29.3227ZM549.747 41.2119C549.747 45.6823 548.72 49.6558 546.7 53.1807L550.17 55.1698C552.565 50.9918 553.747 46.3231 553.747 41.2119H549.747ZM546.705 53.1715C544.678 56.6651 541.909 59.3924 538.368 61.3785L540.325 64.8671C544.488 62.5321 547.777 59.2944 550.165 55.179L546.705 53.1715ZM538.376 61.3745C534.885 63.3135 531.019 64.2932 526.736 64.2932V68.2932C531.658 68.2932 536.199 67.1594 540.318 64.8711L538.376 61.3745ZM526.736 61.3184C530.287 61.3184 533.526 60.5171 536.397 58.8688L534.406 55.3998C532.204 56.6636 529.666 57.3184 526.736 57.3184V61.3184ZM536.421 58.8549C539.293 57.1529 541.522 54.7553 543.096 51.7124L539.543 49.8747C538.299 52.2801 536.582 54.1097 534.382 55.4137L536.421 58.8549ZM543.09 51.7238C544.719 48.6241 545.504 45.102 545.504 41.2119H541.504C541.504 44.555 540.832 47.4207 539.549 49.8633L543.09 51.7238ZM545.504 41.2119C545.504 37.3227 544.719 33.8181 543.083 30.758L539.556 32.6435C540.832 35.0317 541.504 37.8679 541.504 41.2119H545.504ZM543.096 30.7819C541.519 27.734 539.283 25.3528 536.397 23.6959L534.406 27.1649C536.592 28.4201 538.301 30.2191 539.543 32.6196L543.096 30.7819ZM536.397 23.6959C533.526 22.0476 530.287 21.2464 526.736 21.2464V25.2464C529.666 25.2464 532.204 25.9011 534.406 27.1649L536.397 23.6959ZM526.736 21.2464C523.184 21.2464 519.945 22.0476 517.074 23.6959L519.066 27.1649C521.267 25.9011 523.806 25.2464 526.736 25.2464V21.2464ZM517.074 23.6959C514.194 25.3493 511.94 27.7225 510.318 30.758L513.845 32.6435C515.135 30.2306 516.873 28.4236 519.066 27.1649L517.074 23.6959ZM510.305 30.7819C508.725 33.8368 507.968 37.3327 507.968 41.2119H511.968C511.968 37.8579 512.62 35.013 513.858 32.6196L510.305 30.7819ZM507.968 41.2119C507.968 45.0921 508.725 48.6055 510.299 51.7L513.864 49.887C512.62 47.4393 511.968 44.5649 511.968 41.2119H507.968ZM510.318 51.7363C511.937 54.7668 514.184 57.1564 517.05 58.8549L519.09 55.4137C516.883 54.1062 515.138 52.2686 513.845 49.8508L510.318 51.7363ZM517.074 58.8688C519.945 60.5171 523.184 61.3184 526.736 61.3184V57.3184C523.806 57.3184 521.267 56.6636 519.066 55.3998L517.074 58.8688ZM567.682 16.8351H569.682V14.8351H567.682V16.8351ZM567.682 65.8V67.8H569.682V65.8H567.682ZM559.65 65.8H557.65V67.8H559.65V65.8ZM559.65 16.8351V14.8351H557.65V16.8351H559.65ZM565.682 16.8351V65.8H569.682V16.8351H565.682ZM567.682 63.8H559.65V67.8H567.682V63.8ZM561.65 65.8V16.8351H557.65V65.8H561.65ZM559.65 18.8351H567.682V14.8351H559.65V18.8351ZM618.455 65.8V67.8H620.455V65.8H618.455ZM610.424 65.8L608.755 66.9028L609.348 67.8H610.424V65.8ZM586.258 29.2349L587.927 28.1322L584.258 22.5812V29.2349H586.258ZM586.258 65.8V67.8H588.258V65.8H586.258ZM578.227 65.8H576.227V67.8H578.227V65.8ZM578.227 16.7647V14.7647H576.227V16.7647H578.227ZM586.258 16.7647L587.926 15.6605L587.333 14.7647H586.258V16.7647ZM610.424 53.2594L608.756 54.3636L612.424 59.9024V53.2594H610.424ZM610.424 16.7647V14.7647H608.424V16.7647H610.424ZM618.455 16.7647H620.455V14.7647H618.455V16.7647ZM618.455 63.8H610.424V67.8H618.455V63.8ZM612.092 64.6973L587.927 28.1322L584.59 30.3376L608.755 66.9028L612.092 64.6973ZM584.258 29.2349V65.8H588.258V29.2349H584.258ZM586.258 63.8H578.227V67.8H586.258V63.8ZM580.227 65.8V16.7647H576.227V65.8H580.227ZM578.227 18.7647H586.258V14.7647H578.227V18.7647ZM584.591 17.8689L608.756 54.3636L612.091 52.1552L587.926 15.6605L584.591 17.8689ZM612.424 53.2594V16.7647H608.424V53.2594H612.424ZM610.424 18.7647H618.455V14.7647H610.424V18.7647ZM616.455 16.7647V65.8H620.455V16.7647H616.455ZM655.265 16.8351H657.265V14.8351H655.265V16.8351ZM658.153 56.4298L656.757 57.8613L656.765 57.8698L656.774 57.8781L658.153 56.4298ZM674.499 56.4298L673.119 54.9815L673.11 54.9898L673.102 54.9982L674.499 56.4298ZM677.458 16.8351V14.8351H675.458V16.8351H677.458ZM685.489 16.8351H687.489V14.8351H685.489V16.8351ZM682.882 58.0502L684.577 59.1128L682.882 58.0502ZM675.908 64.2501L675.06 62.4385L675.908 64.2501ZM656.603 64.2501L655.745 66.0564L655.756 66.0617L656.603 64.2501ZM649.769 58.0502L648.062 59.0919L649.769 58.0502ZM647.233 16.8351V14.8351H645.233V16.8351H647.233ZM653.265 16.8351V48.0459H657.265V16.8351H653.265ZM653.265 48.0459C653.265 52.086 654.317 55.4815 656.757 57.8613L659.55 54.9982C658.138 53.6205 657.265 51.4268 657.265 48.0459H653.265ZM656.774 57.8781C659.213 60.2011 662.484 61.2479 666.326 61.2479V57.2479C663.216 57.2479 661.039 56.416 659.533 54.9815L656.774 57.8781ZM666.326 61.2479C670.203 61.2479 673.491 60.2067 675.895 57.8613L673.102 54.9982C671.654 56.4104 669.494 57.2479 666.326 57.2479V61.2479ZM675.878 57.8781C678.374 55.5007 679.458 52.099 679.458 48.0459H675.458C675.458 51.4138 674.568 53.6014 673.119 54.9815L675.878 57.8781ZM679.458 48.0459V16.8351H675.458V48.0459H679.458ZM677.458 18.8351H685.489V14.8351H677.458V18.8351ZM683.489 16.8351V47.905H687.489V16.8351H683.489ZM683.489 47.905C683.489 51.6046 682.686 54.5987 681.188 56.9876L684.577 59.1128C686.554 55.9594 687.489 52.19 687.489 47.905H683.489ZM681.188 56.9876C679.651 59.4389 677.617 61.2424 675.06 62.4385L676.755 66.0617C680.022 64.5336 682.638 62.2039 684.577 59.1128L681.188 56.9876ZM675.06 62.4385C672.438 63.665 669.514 64.2932 666.255 64.2932V68.2932C670.043 68.2932 673.553 67.5593 676.755 66.0617L675.06 62.4385ZM666.255 64.2932C662.997 64.2932 660.073 63.665 657.451 62.4385L655.756 66.0617C658.958 67.5593 662.468 68.2932 666.255 68.2932V64.2932ZM657.462 62.4438C654.957 61.2527 652.97 59.4559 651.477 57.0085L648.062 59.0919C649.951 62.1868 652.52 64.5232 655.745 66.0564L657.462 62.4438ZM651.477 57.0085C650.017 54.616 649.233 51.6141 649.233 47.905H645.233C645.233 52.1805 646.14 55.9421 648.062 59.0919L651.477 57.0085ZM649.233 47.905V16.8351H645.233V47.905H649.233ZM647.233 18.8351H655.265V14.8351H647.233V18.8351ZM703.203 64.6023L702.388 66.4286L702.402 66.4347L702.415 66.4406L703.203 64.6023ZM697.003 59.6706L698.633 58.5116L697.003 59.6706ZM694.749 52.273V50.273H692.749V52.273H694.749ZM703.344 52.273L705.336 52.096L705.174 50.273H703.344V52.273ZM705.81 57.4866L704.444 58.9471L704.455 58.9579L704.467 58.9686L705.81 57.4866ZM718.562 57.557L719.856 59.0821L719.869 59.0708L719.882 59.0594L718.562 57.557ZM719.407 48.3277L717.928 49.673L717.944 49.691L717.961 49.7086L719.407 48.3277ZM715.814 45.9323L715.072 47.7892L715.082 47.7934L715.092 47.7974L715.814 45.9323ZM709.896 44.1005L709.384 46.0339L709.394 46.0365L709.896 44.1005ZM702.076 41.5642L701.252 43.3864L701.277 43.3981L701.304 43.4091L702.076 41.5642ZM697.003 22.7532L698.667 23.8626V23.8626L697.003 22.7532ZM702.921 17.8919L703.734 19.7195L703.734 19.7195L702.921 17.8919ZM723.353 19.7942L722.106 21.3583L722.12 21.369L722.133 21.3794L723.353 19.7942ZM728.425 29.5167V31.5167H730.591L730.419 29.3581L728.425 29.5167ZM719.548 29.5167L717.555 29.6741L717.7 31.5167H719.548V29.5167ZM705.246 24.7963L706.502 26.3532V26.3532L705.246 24.7963ZM704.401 33.603L702.918 34.9448L702.951 34.9818L702.987 35.0172L704.401 33.603ZM713.701 37.6893L714.232 35.761L714.221 35.758L713.701 37.6893ZM721.591 40.3665L720.783 42.1958L720.791 42.1992L720.799 42.2026L721.591 40.3665ZM726.805 44.5232L725.205 45.7232L725.222 45.7457L725.239 45.7677L726.805 44.5232ZM726.946 58.9661L725.244 57.9159L725.236 57.9291L725.228 57.9425L726.946 58.9661ZM721.098 64.3205L722.019 66.0961L722.031 66.0897L721.098 64.3205ZM712.08 64.2932C709.023 64.2932 706.338 63.7699 703.991 62.7641L702.415 66.4406C705.329 67.6893 708.562 68.2932 712.08 68.2932V64.2932ZM704.018 62.7761C701.677 61.731 699.907 60.3026 698.633 58.5116L695.373 60.8297C697.106 63.2658 699.468 65.1253 702.388 66.4286L704.018 62.7761ZM698.633 58.5116C697.392 56.7661 696.749 54.7136 696.749 52.273H692.749C692.749 55.4687 693.609 58.3479 695.373 60.8297L698.633 58.5116ZM694.749 54.273H703.344V50.273H694.749V54.273ZM701.352 52.4501C701.58 55.0196 702.604 57.226 704.444 58.9471L707.176 56.026C706.104 55.023 705.484 53.7537 705.336 52.096L701.352 52.4501ZM704.467 58.9686C706.443 60.7589 709.069 61.5297 712.08 61.5297V57.5297C709.737 57.5297 708.183 56.9384 707.153 56.0046L704.467 58.9686ZM712.08 61.5297C715.153 61.5297 717.832 60.7994 719.856 59.0821L717.268 56.032C716.192 56.9449 714.55 57.5297 712.08 57.5297V61.5297ZM719.882 59.0594C721.876 57.3071 722.887 55.0163 722.887 52.3435H718.887C718.887 53.8979 718.348 55.0828 717.242 56.0547L719.882 59.0594ZM722.887 52.3435C722.887 50.2687 722.249 48.4084 720.854 46.9467L717.961 49.7086C718.538 50.3136 718.887 51.1304 718.887 52.3435H722.887ZM720.887 46.9823C719.715 45.6933 718.247 44.7295 716.536 44.0671L715.092 47.7974C716.293 48.2623 717.221 48.8954 717.928 49.673L720.887 46.9823ZM716.557 44.0753C715.033 43.4657 712.967 42.8304 710.398 42.1645L709.394 46.0365C711.898 46.6857 713.777 47.2716 715.072 47.7892L716.557 44.0753ZM710.408 42.1671C707.263 41.3346 704.752 40.5163 702.848 39.7193L701.304 43.4091C703.439 44.3029 706.142 45.1755 709.384 46.0339L710.408 42.1671ZM702.9 39.742C701.247 38.994 699.811 37.8479 698.589 36.2585L695.418 38.6973C697.014 40.7714 698.96 42.3495 701.252 43.3864L702.9 39.742ZM698.589 36.2585C697.524 34.874 696.89 32.9042 696.89 30.1508H692.89C692.89 33.5033 693.665 36.4183 695.418 38.6973L698.589 36.2585ZM696.89 30.1508C696.89 27.6826 697.501 25.6122 698.667 23.8626L695.339 21.6438C693.688 24.1214 692.89 26.9827 692.89 30.1508H696.89ZM698.667 23.8626C699.847 22.0933 701.51 20.7077 703.734 19.7195L702.109 16.0643C699.26 17.3306 696.978 19.1859 695.339 21.6438L698.667 23.8626ZM703.734 19.7195C705.968 18.7265 708.618 18.201 711.728 18.201V14.201C708.169 14.201 704.947 14.8029 702.109 16.0643L703.734 19.7195ZM711.728 18.201C716.128 18.201 719.531 19.3062 722.106 21.3583L724.599 18.23C721.162 15.4913 716.816 14.201 711.728 14.201V18.201ZM722.133 21.3794C724.701 23.3546 726.144 26.0572 726.432 29.6753L730.419 29.3581C730.049 24.7097 728.11 20.9306 724.572 18.2089L722.133 21.3794ZM728.425 27.5167H719.548V31.5167H728.425V27.5167ZM721.542 29.3593C721.353 26.9642 720.195 24.9575 718.278 23.3893L715.746 26.4851C716.929 27.4533 717.462 28.4995 717.555 29.6741L721.542 29.3593ZM718.278 23.3893C716.285 21.758 713.755 21.035 710.883 21.035V25.035C713.083 25.035 714.639 25.5801 715.746 26.4851L718.278 23.3893ZM710.883 21.035C708.233 21.035 705.879 21.7172 703.991 23.2395L706.502 26.3532C707.526 25.5271 708.93 25.035 710.883 25.035V21.035ZM703.991 23.2395C701.977 24.8636 701.062 27.1782 701.062 29.8689H705.062C705.062 28.1447 705.604 27.0774 706.502 26.3532L703.991 23.2395ZM701.062 29.8689C701.062 31.7986 701.649 33.5424 702.918 34.9448L705.884 32.2611C705.368 31.6908 705.062 30.9453 705.062 29.8689H701.062ZM702.987 35.0172C704.143 36.1735 705.556 37.0645 707.181 37.7144L708.666 34.0005C707.473 33.5232 706.538 32.9112 705.815 32.1888L702.987 35.0172ZM707.181 37.7144C708.695 38.3199 710.705 38.954 713.181 39.6205L714.221 35.758C711.811 35.1093 709.971 34.5223 708.666 34.0005L707.181 37.7144ZM713.17 39.6175C716.359 40.4958 718.887 41.358 720.783 42.1958L722.4 38.5371C720.257 37.5902 717.524 36.6675 714.232 35.761L713.17 39.6175ZM720.799 42.2026C722.531 42.9508 723.996 44.1106 725.205 45.7232L728.405 43.3232C726.796 41.1783 724.785 39.567 722.384 38.5303L720.799 42.2026ZM725.239 45.7677C726.335 47.1455 726.989 49.1257 726.989 51.9208H730.989C730.989 48.516 730.188 45.5645 728.371 43.2787L725.239 45.7677ZM726.989 51.9208C726.989 54.0232 726.42 56.0101 725.244 57.9159L728.648 60.0163C730.196 57.507 730.989 54.7971 730.989 51.9208H726.989ZM725.228 57.9425C724.125 59.7926 722.469 61.3369 720.165 62.5514L722.031 66.0897C724.894 64.58 727.136 62.5546 728.664 59.9897L725.228 57.9425ZM720.178 62.545C717.981 63.684 715.304 64.2932 712.08 64.2932V68.2932C715.808 68.2932 719.143 67.5873 722.019 66.096L720.178 62.545ZM796.996 65.8V67.8H798.996V65.8H796.996ZM788.964 65.8L787.296 66.9028L787.889 67.8H788.964V65.8ZM764.799 29.2349L766.468 28.1322L762.799 22.5812V29.2349H764.799ZM764.799 65.8V67.8H766.799V65.8H764.799ZM756.767 65.8H754.767V67.8H756.767V65.8ZM756.767 16.7647V14.7647H754.767V16.7647H756.767ZM764.799 16.7647L766.467 15.6605L765.873 14.7647H764.799V16.7647ZM788.964 53.2594L787.297 54.3636L790.964 59.9024V53.2594H788.964ZM788.964 16.7647V14.7647H786.964V16.7647H788.964ZM796.996 16.7647H798.996V14.7647H796.996V16.7647ZM796.996 63.8H788.964V67.8H796.996V63.8ZM790.633 64.6973L766.468 28.1322L763.13 30.3376L787.296 66.9028L790.633 64.6973ZM762.799 29.2349V65.8H766.799V29.2349H762.799ZM764.799 63.8H756.767V67.8H764.799V63.8ZM758.767 65.8V16.7647H754.767V65.8H758.767ZM756.767 18.7647H764.799V14.7647H756.767V18.7647ZM763.131 17.8689L787.297 54.3636L790.632 52.1552L766.467 15.6605L763.131 17.8689ZM790.964 53.2594V16.7647H786.964V53.2594H790.964ZM788.964 18.7647H796.996V14.7647H788.964V18.7647ZM794.996 16.7647V65.8H798.996V16.7647H794.996ZM817.266 63.1228L816.278 64.862L816.291 64.8691L816.303 64.8762L817.266 63.1228ZM808.177 54.1753L806.442 55.1698L806.449 55.1824L806.457 55.1949L808.177 54.1753ZM808.177 28.319L806.457 27.2994L806.452 27.3073L806.447 27.3152L808.177 28.319ZM817.266 19.4419L818.237 21.1902L818.244 21.1862L817.266 19.4419ZM842.488 19.4419L841.5 21.181L841.513 21.1882L841.526 21.1952L842.488 19.4419ZM851.576 28.319L849.846 29.3227L851.576 28.319ZM851.576 54.1753L853.306 55.1791L853.312 55.1698L851.576 54.1753ZM842.488 63.1228L843.459 64.8712L843.466 64.8671L842.488 63.1228ZM838.543 57.1343L839.538 58.8688L839.55 58.8619L839.562 58.8549L838.543 57.1343ZM844.461 50.7935L842.69 49.8633L842.684 49.8747L844.461 50.7935ZM844.461 31.7007L842.684 32.6196L842.69 32.6316L842.697 32.6435L844.461 31.7007ZM838.543 25.4304L837.547 27.1649L838.543 25.4304ZM821.211 25.4304L822.207 27.1649L821.211 25.4304ZM815.223 31.7007L813.459 30.758L813.452 30.7699L813.446 30.7819L815.223 31.7007ZM815.223 50.7935L813.44 51.7L813.449 51.7183L813.459 51.7363L815.223 50.7935ZM821.211 57.1343L820.191 58.8549L820.203 58.8619L820.215 58.8688L821.211 57.1343ZM829.877 64.2932C825.644 64.2932 821.773 63.3151 818.228 61.3695L816.303 64.8762C820.461 67.1577 824.997 68.2932 829.877 68.2932V64.2932ZM818.253 61.3837C814.755 59.397 811.977 56.664 809.898 53.1557L806.457 55.1949C808.887 59.2955 812.167 62.5275 816.278 64.862L818.253 61.3837ZM809.912 53.1807C807.892 49.6558 806.866 45.6823 806.866 41.2119H802.866C802.866 46.3231 804.047 50.9918 806.442 55.1698L809.912 53.1807ZM806.866 41.2119C806.866 36.7412 807.892 32.7954 809.907 29.3227L806.447 27.3152C804.047 31.4515 802.866 36.1009 802.866 41.2119H806.866ZM809.898 29.3386C811.975 25.834 814.748 23.1287 818.237 21.1902L816.294 17.6936C812.175 19.9823 808.889 23.195 806.457 27.2994L809.898 29.3386ZM818.244 21.1862C821.787 19.1987 825.652 18.201 829.877 18.201V14.201C824.989 14.201 820.447 15.3639 816.287 17.6976L818.244 21.1862ZM829.877 18.201C834.152 18.201 838.013 19.2004 841.5 21.181L843.476 17.7028C839.354 15.3622 834.807 14.201 829.877 14.201V18.201ZM841.526 21.1952C845.057 23.1333 847.822 25.833 849.846 29.3227L853.306 27.3152C850.916 23.196 847.621 19.9776 843.45 17.6886L841.526 21.1952ZM849.846 29.3227C851.862 32.7954 852.888 36.7412 852.888 41.2119H856.888C856.888 36.1009 855.706 31.4515 853.306 27.3152L849.846 29.3227ZM852.888 41.2119C852.888 45.6823 851.862 49.6558 849.841 53.1807L853.312 55.1698C855.706 50.9918 856.888 46.3231 856.888 41.2119H852.888ZM849.846 53.1715C847.819 56.6651 845.05 59.3924 841.509 61.3785L843.466 64.8671C847.629 62.5321 850.918 59.2944 853.306 55.179L849.846 53.1715ZM841.517 61.3745C838.027 63.3135 834.16 64.2932 829.877 64.2932V68.2932C834.799 68.2932 839.34 67.1594 843.459 64.8711L841.517 61.3745ZM829.877 61.3184C833.428 61.3184 836.667 60.5171 839.538 58.8688L837.547 55.3998C835.345 56.6636 832.807 57.3184 829.877 57.3184V61.3184ZM839.562 58.8549C842.434 57.1529 844.663 54.7553 846.237 51.7124L842.684 49.8747C841.44 52.2801 839.723 54.1097 837.523 55.4137L839.562 58.8549ZM846.231 51.7238C847.86 48.6241 848.645 45.102 848.645 41.2119H844.645C844.645 44.555 843.974 47.4207 842.69 49.8633L846.231 51.7238ZM848.645 41.2119C848.645 37.3227 847.86 33.8181 846.224 30.758L842.697 32.6435C843.973 35.0317 844.645 37.8679 844.645 41.2119H848.645ZM846.237 30.7819C844.661 27.734 842.424 25.3528 839.538 23.6959L837.547 27.1649C839.733 28.4201 841.443 30.2191 842.684 32.6196L846.237 30.7819ZM839.538 23.6959C836.667 22.0476 833.428 21.2464 829.877 21.2464V25.2464C832.807 25.2464 835.345 25.9011 837.547 27.1649L839.538 23.6959ZM829.877 21.2464C826.325 21.2464 823.087 22.0476 820.215 23.6959L822.207 27.1649C824.408 25.9011 826.947 25.2464 829.877 25.2464V21.2464ZM820.215 23.6959C817.335 25.3493 815.081 27.7225 813.459 30.758L816.986 32.6435C818.276 30.2306 820.014 28.4236 822.207 27.1649L820.215 23.6959ZM813.446 30.7819C811.866 33.8368 811.109 37.3327 811.109 41.2119H815.109C815.109 37.8579 815.761 35.013 816.999 32.6196L813.446 30.7819ZM811.109 41.2119C811.109 45.0921 811.866 48.6055 813.44 51.7L817.005 49.887C815.761 47.4393 815.109 44.5649 815.109 41.2119H811.109ZM813.459 51.7363C815.078 54.7668 817.325 57.1564 820.191 58.8549L822.231 55.4137C820.024 54.1062 818.279 52.2686 816.986 49.8508L813.459 51.7363ZM820.215 58.8688C823.087 60.5171 826.325 61.3184 829.877 61.3184V57.3184C826.947 57.3184 824.408 56.6636 822.207 55.3998L820.215 58.8688ZM926.551 16.8351L928.469 17.4035L929.23 14.8351H926.551V16.8351ZM912.038 65.8V67.8H913.531L913.955 66.3684L912.038 65.8ZM902.949 65.8L901.022 66.335L901.429 67.8H902.949V65.8ZM892.663 28.7417L894.59 28.2068L892.721 21.4709L890.745 28.1764L892.663 28.7417ZM881.743 65.8L881.759 67.8L883.242 67.7884L883.661 66.3654L881.743 65.8ZM872.725 65.8705L870.801 66.4152L871.216 67.8824L872.741 67.8704L872.725 65.8705ZM858.846 16.8351V14.8351H856.201L856.921 17.3798L858.846 16.8351ZM867.371 16.8351L869.309 16.342L868.925 14.8351H867.371V16.8351ZM877.516 56.7116L875.578 57.2047L877.438 64.5192L879.444 57.243L877.516 56.7116ZM888.507 16.8351V14.8351H886.983L886.578 16.3037L888.507 16.8351ZM897.524 16.8351L899.461 16.3363L899.075 14.8351H897.524V16.8351ZM907.74 56.5002L905.803 56.9991H909.677L907.74 56.5002ZM917.956 16.8351V14.8351H916.406L916.019 16.3363L917.956 16.8351ZM924.634 16.2668L910.12 65.2317L913.955 66.3684L928.469 17.4035L924.634 16.2668ZM912.038 63.8H902.949V67.8H912.038V63.8ZM904.877 65.2651L894.59 28.2068L890.736 29.2766L901.022 66.335L904.877 65.2651ZM890.745 28.1764L879.825 65.2347L883.661 66.3654L894.582 29.307L890.745 28.1764ZM881.727 63.8001L872.709 63.8706L872.741 67.8704L881.759 67.8L881.727 63.8001ZM874.649 65.3258L860.77 16.2904L856.921 17.3798L870.801 66.4152L874.649 65.3258ZM858.846 18.8351H867.371V14.8351H858.846V18.8351ZM865.432 17.3282L875.578 57.2047L879.454 56.2185L869.309 16.342L865.432 17.3282ZM879.444 57.243L890.435 17.3665L886.578 16.3037L875.588 56.1802L879.444 57.243ZM888.507 18.8351H897.524V14.8351H888.507V18.8351ZM895.588 17.3339L905.803 56.9991L909.677 56.0014L899.461 16.3363L895.588 17.3339ZM909.677 56.9991L919.893 17.3339L916.019 16.3363L905.803 56.0014L909.677 56.9991ZM917.956 18.8351H926.551V14.8351H917.956V18.8351ZM961.552 16.8351L963.551 16.8887L963.606 14.8351H961.552V16.8351ZM960.636 51.0049V53.0049H962.583L962.635 51.0585L960.636 51.0049ZM953.943 51.0049L951.943 51.0585L951.995 53.0049H953.943V51.0049ZM953.027 16.8351V14.8351H950.972L951.027 16.8887L953.027 16.8351ZM953.872 64.8137L952.458 66.2279L953.872 64.8137ZM953.872 57.4866L952.458 56.0724L953.872 57.4866ZM961.129 64.8137L959.715 63.3995L961.129 64.8137ZM959.552 16.7815L958.636 50.9513L962.635 51.0585L963.551 16.8887L959.552 16.7815ZM960.636 49.0049H953.943V53.0049H960.636V49.0049ZM955.942 50.9513L955.026 16.7815L951.027 16.8887L951.943 51.0585L955.942 50.9513ZM953.027 18.8351H961.552V14.8351H953.027V18.8351ZM957.536 64.2932C956.584 64.2932 955.88 63.9928 955.286 63.3995L952.458 66.2279C953.837 67.6073 955.575 68.2932 957.536 68.2932V64.2932ZM955.286 63.3995C954.693 62.8062 954.393 62.1017 954.393 61.1501H950.393C950.393 63.1107 951.079 64.8486 952.458 66.2279L955.286 63.3995ZM954.393 61.1501C954.393 60.1986 954.693 59.4941 955.286 58.9008L952.458 56.0724C951.079 57.4517 950.393 59.1896 950.393 61.1501H954.393ZM955.286 58.9008C955.88 58.3075 956.584 58.0071 957.536 58.0071V54.0071C955.575 54.0071 953.837 54.693 952.458 56.0724L955.286 58.9008ZM957.536 58.0071C958.42 58.0071 959.108 58.2938 959.715 58.9008L962.543 56.0724C961.177 54.7067 959.469 54.0071 957.536 54.0071V58.0071ZM959.715 58.9008C960.308 59.4941 960.608 60.1986 960.608 61.1501H964.608C964.608 59.1896 963.922 57.4517 962.543 56.0724L959.715 58.9008ZM960.608 61.1501C960.608 62.1017 960.308 62.8062 959.715 63.3995L962.543 66.2279C963.922 64.8486 964.608 63.1107 964.608 61.1501H960.608ZM959.715 63.3995C959.108 64.0065 958.42 64.2932 957.536 64.2932V68.2932C959.469 68.2932 961.177 67.5936 962.543 66.2279L959.715 63.3995Z" fill="white" mask="url(#path-1-outside-1_1043_6151)"/>
</svg>
