<svg width="21" height="21" viewBox="0 0 21 21" fill="none" xmlns="http://www.w3.org/2000/svg">
<path d="M6.19922 16.5C5.09922 16.5 4.20922 17.4 4.20922 18.5C4.20922 19.6 5.09922 20.5 6.19922 20.5C7.29922 20.5 8.19922 19.6 8.19922 18.5C8.19922 17.4 7.29922 16.5 6.19922 16.5ZM0.199219 1.5C0.199219 2.05 0.649219 2.5 1.19922 2.5H2.19922L5.79922 10.09L4.44922 12.53C3.71922 13.87 4.67922 15.5 6.19922 15.5H17.1992C17.7492 15.5 18.1992 15.05 18.1992 14.5C18.1992 13.95 17.7492 13.5 17.1992 13.5H6.19922L7.29922 11.5H14.7492C15.4992 11.5 16.1592 11.09 16.4992 10.47L20.0792 3.98C20.1635 3.82843 20.2067 3.65747 20.2047 3.48406C20.2026 3.31064 20.1552 3.14077 20.0674 2.99126C19.9795 2.84175 19.8541 2.71778 19.7036 2.63162C19.553 2.54546 19.3826 2.50009 19.2092 2.5H4.40922L3.73922 1.07C3.65885 0.899307 3.53152 0.755042 3.37213 0.654095C3.21274 0.553147 3.02789 0.499697 2.83922 0.500001H1.19922C0.649219 0.500001 0.199219 0.950001 0.199219 1.5ZM16.1992 16.5C15.0992 16.5 14.2092 17.4 14.2092 18.5C14.2092 19.6 15.0992 20.5 16.1992 20.5C17.2992 20.5 18.1992 19.6 18.1992 18.5C18.1992 17.4 17.2992 16.5 16.1992 16.5Z" fill="#FF6F00"/>
</svg>
