<svg width="26" height="27" viewBox="0 0 26 27" fill="none" xmlns="http://www.w3.org/2000/svg">
<rect x="0.899414" y="1.19995" width="24.6" height="24.6" stroke="white"/>
<path d="M8.19922 19.5C7.09922 19.5 6.20922 20.4 6.20922 21.5C6.20922 22.6 7.09922 23.5 8.19922 23.5C9.29922 23.5 10.1992 22.6 10.1992 21.5C10.1992 20.4 9.29922 19.5 8.19922 19.5ZM2.19922 4.5C2.19922 5.05 2.64922 5.5 3.19922 5.5H4.19922L7.79922 13.09L6.44922 15.53C5.71922 16.87 6.67922 18.5 8.19922 18.5H19.1992C19.7492 18.5 20.1992 18.05 20.1992 17.5C20.1992 16.95 19.7492 16.5 19.1992 16.5H8.19922L9.29922 14.5H16.7492C17.4992 14.5 18.1592 14.09 18.4992 13.47L22.0792 6.98C22.1635 6.82843 22.2067 6.65747 22.2047 6.48406C22.2026 6.31064 22.1552 6.14077 22.0674 5.99126C21.9795 5.84175 21.8541 5.71778 21.7036 5.63162C21.553 5.54546 21.3826 5.50009 21.2092 5.5H6.40922L5.73922 4.07C5.65885 3.89931 5.53152 3.75504 5.37213 3.65409C5.21274 3.55315 5.02789 3.4997 4.83922 3.5H3.19922C2.64922 3.5 2.19922 3.95 2.19922 4.5ZM18.1992 19.5C17.0992 19.5 16.2092 20.4 16.2092 21.5C16.2092 22.6 17.0992 23.5 18.1992 23.5C19.2992 23.5 20.1992 22.6 20.1992 21.5C20.1992 20.4 19.2992 19.5 18.1992 19.5Z" fill="#6A696E"/>
</svg>
