<svg width="32" height="35" viewBox="0 0 32 35" fill="none" xmlns="http://www.w3.org/2000/svg">
<path d="M6.21411 19.3235H24.6651C26.0877 19.3235 26.799 19.3235 27.3653 19.0653C27.8642 18.8378 28.2833 18.4725 28.5706 18.0149C28.8968 17.4954 28.9753 16.8071 29.1324 15.4304L29.9541 7.31788C30.0021 6.89738 30.0261 6.68713 29.9567 6.52439C29.8957 6.38147 29.7867 6.26292 29.6476 6.18811C29.4891 6.10294 29.2718 6.10294 28.8373 6.10294H5.51179M2 2H3.75361C4.12531 2 4.31116 2 4.45656 2.06883C4.58456 2.12942 4.69064 2.22645 4.76073 2.34706C4.84035 2.48406 4.85194 2.66466 4.87513 3.02587L6.14807 25.5918C6.17125 25.953 6.18285 26.1336 6.26247 26.2706C6.33256 26.3912 6.43864 26.4882 6.56664 26.5488C6.71204 26.6176 6.89789 26.6176 7.26959 26.6176H25.8789M9.72552 32.3162H9.73956M22.3673 32.3162H22.3813M10.4278 32.3162C10.4278 32.6938 10.1134 33 9.72552 33C9.33764 33 9.0232 32.6938 9.0232 32.3162C9.0232 31.9385 9.33764 31.6324 9.72552 31.6324C10.1134 31.6324 10.4278 31.9385 10.4278 32.3162ZM23.0696 32.3162C23.0696 32.6938 22.7552 33 22.3673 33C21.9794 33 21.665 32.6938 21.665 32.3162C21.665 31.9385 21.9794 31.6324 22.3673 31.6324C22.7552 31.6324 23.0696 31.9385 23.0696 32.3162Z" stroke="#BDBDBD" stroke-width="3" stroke-linecap="round"/>
</svg>
