<svg width="21" height="21" viewBox="0 0 21 21" fill="none" xmlns="http://www.w3.org/2000/svg">
<path d="M9.25258 1.92188H7.57275C3.37319 1.92188 1.69336 3.6017 1.69336 7.80127V12.8408C1.69336 17.0403 3.37319 18.7201 7.57275 18.7201H12.6122C16.8118 18.7201 18.4916 17.0403 18.4916 12.8408V11.1609" stroke="#FF6F00" stroke-width="1.3744" stroke-linecap="round" stroke-linejoin="round"/>
<path d="M13.4863 2.77817L6.86776 9.39669C6.61578 9.64866 6.36381 10.1442 6.31341 10.5054L5.95225 13.0335C5.81787 13.949 6.4646 14.5874 7.3801 14.4614L9.90824 14.1002C10.261 14.0498 10.7566 13.7978 11.0169 13.5459L17.6354 6.92734C18.7777 5.78506 19.3153 4.458 17.6354 2.77817C15.9556 1.09834 14.6286 1.63589 13.4863 2.77817Z" stroke="#FF6F00" stroke-width="1.3744" stroke-miterlimit="10" stroke-linecap="round" stroke-linejoin="round"/>
<path d="M12.5371 3.72754C13.0999 5.73493 14.6705 7.30557 16.6863 7.87671Z" fill="#FF6F00"/>
<path d="M12.5371 3.72754C13.0999 5.73493 14.6705 7.30557 16.6863 7.87671" stroke="#FF6F00" stroke-width="1.3744" stroke-miterlimit="10" stroke-linecap="round" stroke-linejoin="round"/>
</svg>
