<svg width="32" height="32" viewBox="0 0 32 32" fill="none" xmlns="http://www.w3.org/2000/svg">
<path d="M16.0005 27C12.8469 26.9903 9.77047 26.0236 7.1782 24.2276C4.58593 22.4316 2.59994 19.891 1.48291 16.9418L1.37305 16.648L1.50586 16.1274C2.35936 12.9365 4.24197 10.1163 6.86169 8.10441C9.48141 6.0925 12.6918 5.00128 15.995 5C19.2981 4.99872 22.5093 6.08746 25.1306 8.09734C27.7519 10.1072 29.6367 12.9259 30.4927 16.1162L30.6274 16.6489L30.5181 16.9419C29.4008 19.8909 27.4147 22.4314 24.8225 24.2273C22.2303 26.0232 19.154 26.9901 16.0005 27ZM3.46875 16.5302C4.47391 19.0315 6.20456 21.1747 8.43799 22.6841C10.6714 24.1935 13.3054 25.0001 16.0011 25C18.6967 24.9999 21.3307 24.1931 23.564 22.6835C25.7973 21.1739 27.5278 19.0305 28.5327 16.5292C27.7728 13.7892 26.1358 11.3737 23.8724 9.65265C21.609 7.93158 18.8438 6.99976 16.0004 6.99988C13.1569 6.99999 10.3918 7.93202 8.12855 9.65328C5.86524 11.3745 4.22844 13.7901 3.46875 16.5302ZM16.0005 21C15.0116 21 14.0449 20.7067 13.2226 20.1573C12.4004 19.6079 11.7595 18.827 11.3811 17.9134C11.0027 16.9997 10.9036 15.9944 11.0966 15.0245C11.2895 14.0546 11.7657 13.1637 12.465 12.4644C13.1642 11.7652 14.0551 11.2889 15.025 11.096C15.9949 10.9031 17.0003 11.0021 17.9139 11.3806C18.8275 11.759 19.6084 12.3999 20.1578 13.2221C20.7072 14.0443 21.0005 15.011 21.0005 16C20.9989 17.3256 20.4716 18.5964 19.5343 19.5338C18.597 20.4711 17.3261 20.9984 16.0005 21ZM16.0005 12.9999C15.4071 12.9999 14.8271 13.1759 14.3338 13.5055C13.8404 13.8352 13.4559 14.3037 13.2288 14.8519C13.0018 15.4001 12.9424 16.0033 13.0581 16.5852C13.1739 17.1672 13.4596 17.7017 13.8792 18.1213C14.2987 18.5408 14.8333 18.8266 15.4152 18.9423C15.9972 19.0581 16.6004 18.9987 17.1485 18.7716C17.6967 18.5445 18.1653 18.16 18.4949 17.6667C18.8245 17.1733 19.0005 16.5933 19.0005 16C18.9996 15.2046 18.6833 14.442 18.1208 13.8796C17.5584 13.3172 16.7959 13.0008 16.0005 12.9999Z" fill="#222222"/>
</svg>
