<svg width="49" height="49" viewBox="0 0 49 49" fill="none" xmlns="http://www.w3.org/2000/svg">
<g clip-path="url(#clip0_875_2880)">
<path d="M24.6571 9.79688C15.6031 9.79688 7.78211 15.8619 5.39711 24.3879L5.28711 24.7969L5.30011 24.8509C7.53511 33.4469 15.2681 39.6309 24.2901 39.7939L24.6571 39.7969C33.7101 39.7969 41.5321 33.7329 43.9171 25.2069L44.0271 24.7959L44.0141 24.7439C41.7801 16.1469 34.0461 9.96388 25.0241 9.79988L24.6571 9.79688Z" fill="#FF6F00" fill-opacity="0.2"/>
<path d="M24.6567 5.79688C35.8367 5.79688 45.4507 13.5019 48.0027 24.2099L48.1357 24.7969L48.0027 25.3839C45.4507 36.0919 35.8377 43.7969 24.6567 43.7969C13.4767 43.7969 3.86273 36.0919 1.31073 25.3849L1.17773 24.7979L1.22573 24.5819C3.64173 13.6809 13.3467 5.79688 24.6567 5.79688ZM24.6567 7.79688C14.5367 7.79688 5.81673 14.6839 3.34773 24.3059L3.22773 24.7979L3.25973 24.9379C5.54773 34.5019 13.9877 41.4509 23.9097 41.7839L24.2867 41.7939L24.6567 41.7969C34.8997 41.7969 43.7087 34.7409 46.0537 24.9359L46.0847 24.7959L46.0537 24.6579C43.7657 15.0919 35.3257 8.14287 25.4037 7.80988L25.0267 7.79987L24.6567 7.79688ZM24.6567 17.7969C25.576 17.7969 26.4862 17.9779 27.3355 18.3297C28.1848 18.6815 28.9565 19.1971 29.6065 19.8471C30.2565 20.4971 30.7721 21.2688 31.1239 22.1181C31.4757 22.9674 31.6567 23.8776 31.6567 24.7969C31.6567 25.7161 31.4757 26.6264 31.1239 27.4757C30.7721 28.3249 30.2565 29.0966 29.6065 29.7466C28.9565 30.3966 28.1848 30.9122 27.3355 31.264C26.4862 31.6158 25.576 31.7969 24.6567 31.7969C22.8002 31.7969 21.0197 31.0594 19.707 29.7466C18.3942 28.4339 17.6567 26.6534 17.6567 24.7969C17.6567 22.9404 18.3942 21.1599 19.707 19.8471C21.0197 18.5344 22.8002 17.7969 24.6567 17.7969ZM24.6567 19.7969C23.3307 19.7969 22.0589 20.3237 21.1212 21.2613C20.1835 22.199 19.6567 23.4708 19.6567 24.7969C19.6567 26.123 20.1835 27.3947 21.1212 28.3324C22.0589 29.2701 23.3307 29.7969 24.6567 29.7969C25.9828 29.7969 27.2546 29.2701 28.1923 28.3324C29.1299 27.3947 29.6567 26.123 29.6567 24.7969C29.6567 23.4708 29.1299 22.199 28.1923 21.2613C27.2546 20.3237 25.9828 19.7969 24.6567 19.7969Z" fill="#FF6F00"/>
</g>
<defs>
<clipPath id="clip0_875_2880">
<rect width="48" height="48" fill="white" transform="translate(0.65625 0.796875)"/>
</clipPath>
</defs>
</svg>
