<svg width="25" height="25" viewBox="0 0 25 25" fill="none" xmlns="http://www.w3.org/2000/svg">
<path d="M22.892 4.25027C22.892 3.5252 22.8915 3.16239 22.7504 2.88545C22.6263 2.64185 22.429 2.44394 22.1854 2.31982C21.9084 2.17871 21.5452 2.17871 20.8201 2.17871H4.24866C3.52359 2.17871 3.16142 2.17871 2.88448 2.31982C2.64088 2.44394 2.44296 2.64185 2.31884 2.88545C2.17773 3.16239 2.17773 3.5252 2.17773 4.25027V5.20475C2.17773 5.52141 2.17773 5.67986 2.21351 5.82886C2.24522 5.96096 2.29766 6.08714 2.36864 6.20298C2.44868 6.33359 2.56083 6.44573 2.7846 6.6695L9.33904 13.2239C9.56294 13.4478 9.67428 13.5592 9.75434 13.6898C9.82533 13.8057 9.87848 13.9323 9.91019 14.0644C9.9456 14.2119 9.9456 14.3684 9.94559 14.6787V20.8358C9.94559 21.9456 9.94559 22.5008 10.1793 22.835C10.3834 23.1268 10.6983 23.3215 11.0506 23.3736C11.454 23.4332 11.9506 23.1853 12.9432 22.6889L13.979 22.1711C14.3946 21.9633 14.6019 21.859 14.7538 21.7039C14.8881 21.5668 14.9908 21.4022 15.0534 21.2208C15.1241 21.0156 15.1242 20.7827 15.1242 20.318V14.6883C15.1242 14.3717 15.1242 14.2134 15.1599 14.0644C15.1916 13.9323 15.2441 13.8057 15.3151 13.6898C15.3946 13.5601 15.5057 13.449 15.7266 13.2281L15.731 13.2239L22.2855 6.6695C22.5094 6.44559 22.6207 6.33363 22.7008 6.20298C22.7718 6.08714 22.8249 5.96096 22.8566 5.82886C22.892 5.68138 22.892 5.52463 22.892 5.21439V4.25027Z" stroke="#A0A5BA" stroke-width="3.10714" stroke-linecap="round" stroke-linejoin="round"/>
</svg>
