<svg width="20" height="20" viewBox="0 0 20 20" fill="none" xmlns="http://www.w3.org/2000/svg">
<g clip-path="url(#clip0_875_2858)">
<path d="M7.57435 7.50008C7.77027 6.94314 8.15698 6.4735 8.66598 6.17436C9.17498 5.87521 9.77343 5.76586 10.3553 5.86567C10.9372 5.96549 11.465 6.26802 11.8452 6.71969C12.2255 7.17136 12.4336 7.74302 12.4327 8.33342C12.4327 10.0001 9.93268 10.8334 9.93268 10.8334M9.99935 14.1667H10.0077M18.3327 10.0001C18.3327 14.6025 14.6017 18.3334 9.99935 18.3334C5.39698 18.3334 1.66602 14.6025 1.66602 10.0001C1.66602 5.39771 5.39698 1.66675 9.99935 1.66675C14.6017 1.66675 18.3327 5.39771 18.3327 10.0001Z" stroke="black" stroke-width="1.5" stroke-linecap="round" stroke-linejoin="round"/>
</g>
<defs>
<clipPath id="clip0_875_2858">
<rect width="20" height="20" fill="white"/>
</clipPath>
</defs>
</svg>
