<svg width="25" height="25" viewBox="0 0 25 25" fill="none" xmlns="http://www.w3.org/2000/svg">
<path d="M12.7998 2.48999C8.5998 2.48999 4.7998 5.70999 4.7998 10.69C4.7998 13.87 7.2498 17.61 12.1398 21.92C12.5198 22.25 13.0898 22.25 13.4698 21.92C18.3498 17.61 20.7998 13.87 20.7998 10.69C20.7998 5.70999 16.9998 2.48999 12.7998 2.48999ZM12.7998 12.49C11.6998 12.49 10.7998 11.59 10.7998 10.49C10.7998 9.38999 11.6998 8.48999 12.7998 8.48999C13.8998 8.48999 14.7998 9.38999 14.7998 10.49C14.7998 11.59 13.8998 12.49 12.7998 12.49Z" fill="#FF6F00"/>
</svg>
