<svg width="32" height="32" viewBox="0 0 32 32" fill="none" xmlns="http://www.w3.org/2000/svg">
<path d="M30.8281 3.72697C30.6121 3.24261 30.2127 2.86372 29.7177 2.67342C29.2227 2.48311 28.6723 2.49693 28.1875 2.71184L11.7877 10.0004H6.99999C5.43116 10.0004 3.92472 10.6148 2.80346 11.7121C1.6822 12.8094 1.03531 14.3021 1.0014 15.8706C0.967497 17.4391 1.54927 18.9584 2.62207 20.1031C3.69487 21.2478 5.17334 21.9268 6.74071 21.9945L11 21.9985V29.0004H13V22.5387L28.1885 29.2895C28.493 29.4246 28.8264 29.4815 29.1585 29.455C29.4906 29.4286 29.8108 29.3196 30.0901 29.138C30.3694 28.9564 30.5989 28.7079 30.7578 28.4151C30.9167 28.1223 30.9999 27.7945 31 27.4613V4.53898C30.9995 4.25933 30.941 3.98282 30.8281 3.72697ZM6.8164 19.9965C5.77255 19.9485 4.78894 19.4939 4.07596 18.7299C3.36297 17.966 2.97721 16.9534 3.0012 15.9087C3.02519 14.8641 3.45701 13.8703 4.2043 13.1399C4.9516 12.4095 5.95503 12.0005 6.99999 12.0004H11V20.0004H7.02245L6.8164 19.9965ZM29 27.4613L13 20.351V11.6503L29 4.53898V27.4613Z" fill="#222222"/>
</svg>
