<svg width="21" height="21" viewBox="0 0 21 21" fill="none" xmlns="http://www.w3.org/2000/svg">
<path d="M10.8896 0.5C5.36965 0.5 0.889648 4.98 0.889648 10.5C0.889648 16.02 5.36965 20.5 10.8896 20.5C16.4096 20.5 20.8896 16.02 20.8896 10.5C20.8896 4.98 16.4096 0.5 10.8896 0.5ZM10.8896 3.5C12.5496 3.5 13.8896 4.84 13.8896 6.5C13.8896 8.16 12.5496 9.5 10.8896 9.5C9.22965 9.5 7.88965 8.16 7.88965 6.5C7.88965 4.84 9.22965 3.5 10.8896 3.5ZM10.8896 17.7C9.70151 17.7 8.53183 17.406 7.48493 16.8441C6.43802 16.2823 5.54643 15.4701 4.88965 14.48C4.91965 12.49 8.88965 11.4 10.8896 11.4C12.8796 11.4 16.8596 12.49 16.8896 14.48C16.2329 15.4701 15.3413 16.2823 14.2944 16.8441C13.2475 17.406 12.0778 17.7 10.8896 17.7Z" fill="#FF6F00"/>
</svg>
