<svg width="49" height="49" viewBox="0 0 49 49" fill="none" xmlns="http://www.w3.org/2000/svg">
<g clip-path="url(#clip0_875_2898)">
<path d="M27.6562 5.01562L28.2412 5.02063C32.5312 5.09663 37.0782 6.00463 41.8862 7.75763L42.6562 8.04562V35.4156L42.6483 35.5456C42.629 35.6937 42.5767 35.8357 42.4954 35.9609C42.4141 36.0862 42.3057 36.1917 42.1782 36.2696L42.0622 36.3296L27.6562 42.7316V25.0156C27.6562 24.7707 27.5663 24.5343 27.4035 24.3513C27.2408 24.1682 27.0165 24.0513 26.7733 24.0226L26.6562 24.0156H12.6562V8.04463L13.4263 7.75863C18.2233 6.00863 22.7622 5.10063 27.0462 5.02163L27.6562 5.01562Z" fill="#FF6F00"/>
<path d="M27.6562 1.01562C33.2552 1.01562 39.1743 2.29063 45.4113 4.83162C45.754 4.97125 46.0513 5.20324 46.2701 5.50179C46.4888 5.80033 46.6204 6.15372 46.6502 6.52262L46.6562 6.68563V35.4156C46.6562 36.3442 46.3976 37.2544 45.9094 38.0442C45.4213 38.8341 44.7228 39.4724 43.8923 39.8876L43.6872 39.9846L28.0933 46.9146L27.6562 47.0156L25.1952 46.0156H27.6462C27.6489 46.0156 27.6514 46.0145 27.6532 46.0126L27.6562 46.0056V44.9206L42.8742 38.1576C43.344 37.9491 43.7522 37.6233 44.0599 37.2117C44.3675 36.8 44.5643 36.3162 44.6312 35.8066L44.6502 35.6126L44.6562 35.4166V6.68463L43.9642 6.40662C38.2132 4.14362 32.7773 3.01562 27.6562 3.01562C22.5352 3.01562 17.0993 4.14362 11.3483 6.40662L10.6563 6.68563L10.6552 24.0156H8.65625V6.68463C8.65607 6.31448 8.75862 5.95155 8.95247 5.63622C9.14633 5.3209 9.42389 5.06556 9.75425 4.89862L9.90125 4.83162C16.1392 2.29063 22.0573 1.01562 27.6562 1.01562Z" fill="#FF6F00"/>
<path d="M4.65625 24.0156H26.6562C26.9215 24.0156 27.1758 24.121 27.3634 24.3085C27.5509 24.4961 27.6562 24.7504 27.6562 25.0156V46.0056C27.6563 46.0083 27.6552 46.0108 27.6533 46.0127C27.6514 46.0146 27.6489 46.0156 27.6462 46.0156H4.65625C4.39103 46.0156 4.13668 45.9103 3.94914 45.7227C3.76161 45.5352 3.65625 45.2808 3.65625 45.0156V25.0156C3.65625 24.7504 3.76161 24.4961 3.94914 24.3085C4.13668 24.121 4.39103 24.0156 4.65625 24.0156Z" stroke="#222222" stroke-width="2"/>
<path d="M21.6562 25.0156V20.0156C21.6562 18.4243 21.0241 16.8982 19.8989 15.773C18.7737 14.6478 17.2475 14.0156 15.6562 14.0156C14.065 14.0156 12.5388 14.6478 11.4136 15.773C10.2884 16.8982 9.65625 18.4243 9.65625 20.0156V25.0156" stroke="#222222" stroke-width="2"/>
<path d="M15.6562 37.0156C16.7608 37.0156 17.6562 36.1202 17.6562 35.0156C17.6562 33.9111 16.7608 33.0156 15.6562 33.0156C14.5517 33.0156 13.6562 33.9111 13.6562 35.0156C13.6562 36.1202 14.5517 37.0156 15.6562 37.0156Z" stroke="#222222" stroke-width="2"/>
</g>
<defs>
<clipPath id="clip0_875_2898">
<rect width="48" height="48" fill="white" transform="translate(0.65625 0.015625)"/>
</clipPath>
</defs>
</svg>
