<svg width="32" height="32" viewBox="0 0 32 32" fill="none" xmlns="http://www.w3.org/2000/svg">
<path d="M28.4141 10L20 1.58594C19.6242 1.21199 19.1161 1.00142 18.5859 1H8C6.6744 1.00156 5.40353 1.52884 4.46619 2.46618C3.52884 3.40353 3.00156 4.6744 3 6V26C3.00156 27.3256 3.52884 28.5965 4.46619 29.5338C5.40353 30.4712 6.6744 30.9984 8 31H24C25.3256 30.9984 26.5965 30.4712 27.5338 29.5338C28.4712 28.5965 28.9984 27.3256 29 26V11.4141C29.0007 11.1513 28.9493 10.8911 28.8487 10.6483C28.7481 10.4056 28.6004 10.1852 28.4141 10ZM19 3.41406L26.5859 11H22C21.2046 10.9991 20.4421 10.6828 19.8796 10.1204C19.3172 9.55794 19.0009 8.79538 19 8V3.41406ZM27 26C26.9991 26.7954 26.6828 27.5579 26.1204 28.1204C25.5579 28.6828 24.7954 28.9991 24 29H8C7.20462 28.9991 6.44206 28.6828 5.87964 28.1204C5.31722 27.5579 5.00087 26.7954 5 26V6C5.00087 5.20462 5.31722 4.44206 5.87964 3.87964C6.44206 3.31722 7.20462 3.00087 8 3H17V8C17.0016 9.3256 17.5288 10.5965 18.4662 11.5338C19.4035 12.4712 20.6744 12.9984 22 13H27V26Z" fill="#222222"/>
</svg>
