<svg width="49" height="49" viewBox="0 0 49 49" fill="none" xmlns="http://www.w3.org/2000/svg">
<g clip-path="url(#clip0_875_2889)">
<path d="M39.6562 16.9521V44.9531H9.65625V16.9521H39.6562Z" fill="#FF6F00" fill-opacity="0.64"/>
<path d="M24.6562 0.953125C30.0855 0.953125 34.5042 5.2798 34.6524 10.6732L34.6562 10.9531V12.9531H41.6562C42.7106 12.9531 43.5744 13.769 43.6508 14.8039L43.6562 14.9531V46.9531C43.6562 48.0075 42.8404 48.8713 41.8055 48.9476L41.6562 48.9531H7.65625C6.60189 48.9531 5.73808 48.1372 5.66174 47.1024L5.65625 46.9531V14.9531C5.65625 13.8988 6.47213 13.035 7.50699 12.9586L7.65625 12.9531H14.6562V10.9531C14.6562 5.43028 19.1334 0.953125 24.6562 0.953125ZM41.6562 14.9531H7.65625V46.9531H41.6562V14.9531ZM24.6562 28.9531C26.3131 28.9531 27.6562 30.2963 27.6562 31.9531C27.6562 33.61 26.3131 34.9531 24.6562 34.9531C22.9994 34.9531 21.6562 33.61 21.6562 31.9531C21.6562 30.2963 22.9994 28.9531 24.6562 28.9531ZM24.6562 30.9531C24.104 30.9531 23.6562 31.4008 23.6562 31.9531C23.6562 32.5054 24.104 32.9531 24.6562 32.9531C25.2085 32.9531 25.6562 32.5054 25.6562 31.9531C25.6562 31.4008 25.2085 30.9531 24.6562 30.9531ZM24.6562 2.95312C20.3213 2.95312 16.7917 6.40096 16.6601 10.7039L16.6562 10.9531V12.9531H32.6562V10.9531C32.6562 6.53485 29.0745 2.95312 24.6562 2.95312Z" fill="#FF6F00"/>
</g>
<defs>
<clipPath id="clip0_875_2889">
<rect width="48" height="48" fill="white" transform="translate(0.65625 0.953125)"/>
</clipPath>
</defs>
</svg>
