<svg width="32" height="32" viewBox="0 0 32 32" fill="none" xmlns="http://www.w3.org/2000/svg">
<path d="M25 4C25.5046 3.99984 25.9906 4.19041 26.3605 4.5335C26.7305 4.87659 26.9572 5.34684 26.995 5.85L27 6V8H29.04C30.082 8 30.92 8.824 30.995 9.852L31 10V26C31 27.046 30.209 27.917 29.187 27.994L29.04 28H6.96C5.918 28 5.08 27.176 5.005 26.148L5 26V24H3C2.49542 24.0002 2.00943 23.8096 1.63945 23.4665C1.26947 23.1234 1.04284 22.6532 1.005 22.15L1 22V6C0.99984 5.49542 1.19041 5.00943 1.5335 4.63945C1.87659 4.26947 2.34684 4.04284 2.85 4.005L3 4H25ZM27 22C27.0002 22.5046 26.8096 22.9906 26.4665 23.3605C26.1234 23.7305 25.6532 23.9572 25.15 23.995L25 24H7V26H29V10H27V22ZM25 6H3V22H25V6ZM22 18C22.2652 18 22.5196 18.1054 22.7071 18.2929C22.8946 18.4804 23 18.7348 23 19C23 19.2652 22.8946 19.5196 22.7071 19.7071C22.5196 19.8946 22.2652 20 22 20C21.7348 20 21.4804 19.8946 21.2929 19.7071C21.1054 19.5196 21 19.2652 21 19C21 18.7348 21.1054 18.4804 21.2929 18.2929C21.4804 18.1054 21.7348 18 22 18ZM14 10C15.0609 10 16.0783 10.4214 16.8284 11.1716C17.5786 11.9217 18 12.9391 18 14C18 15.0609 17.5786 16.0783 16.8284 16.8284C16.0783 17.5786 15.0609 18 14 18C12.9391 18 11.9217 17.5786 11.1716 16.8284C10.4214 16.0783 10 15.0609 10 14C10 12.9391 10.4214 11.9217 11.1716 11.1716C11.9217 10.4214 12.9391 10 14 10ZM14 12C13.4696 12 12.9609 12.2107 12.5858 12.5858C12.2107 12.9609 12 13.4696 12 14C12 14.5304 12.2107 15.0391 12.5858 15.4142C12.9609 15.7893 13.4696 16 14 16C14.5304 16 15.0391 15.7893 15.4142 15.4142C15.7893 15.0391 16 14.5304 16 14C16 13.4696 15.7893 12.9609 15.4142 12.5858C15.0391 12.2107 14.5304 12 14 12ZM6 8C6.26522 8 6.51957 8.10536 6.70711 8.29289C6.89464 8.48043 7 8.73478 7 9C7 9.26522 6.89464 9.51957 6.70711 9.70711C6.51957 9.89464 6.26522 10 6 10C5.73478 10 5.48043 9.89464 5.29289 9.70711C5.10536 9.51957 5 9.26522 5 9C5 8.73478 5.10536 8.48043 5.29289 8.29289C5.48043 8.10536 5.73478 8 6 8Z" fill="#222222"/>
</svg>
