<svg width="17" height="16" viewBox="0 0 17 16" fill="none" xmlns="http://www.w3.org/2000/svg">
<path d="M8.34994 5.33342C6.8766 5.33342 5.68327 6.52675 5.68327 8.00008C5.68327 9.47342 6.8766 10.6667 8.34994 10.6667C9.82327 10.6667 11.0166 9.47342 11.0166 8.00008C11.0166 6.52675 9.82327 5.33342 8.34994 5.33342ZM14.3099 7.33342C14.1589 5.9815 13.5527 4.72111 12.5908 3.75921C11.6289 2.79731 10.3685 2.19109 9.0166 2.04008V1.33341C9.0166 0.966748 8.7166 0.666748 8.34994 0.666748C7.98327 0.666748 7.68327 0.966748 7.68327 1.33341V2.04008C6.33135 2.19109 5.07096 2.79731 4.10906 3.75921C3.14717 4.72111 2.54094 5.9815 2.38993 7.33342H1.68327C1.3166 7.33342 1.0166 7.63341 1.0166 8.00008C1.0166 8.36675 1.3166 8.66675 1.68327 8.66675H2.38993C2.54094 10.0187 3.14717 11.2791 4.10906 12.241C5.07096 13.2028 6.33135 13.8091 7.68327 13.9601V14.6667C7.68327 15.0334 7.98327 15.3334 8.34994 15.3334C8.7166 15.3334 9.0166 15.0334 9.0166 14.6667V13.9601C10.3685 13.8091 11.6289 13.2028 12.5908 12.241C13.5527 11.2791 14.1589 10.0187 14.3099 8.66675H15.0166C15.3833 8.66675 15.6833 8.36675 15.6833 8.00008C15.6833 7.63341 15.3833 7.33342 15.0166 7.33342H14.3099ZM8.34994 12.6667C5.76994 12.6667 3.68327 10.5801 3.68327 8.00008C3.68327 5.42008 5.76994 3.33341 8.34994 3.33341C10.9299 3.33341 13.0166 5.42008 13.0166 8.00008C13.0166 10.5801 10.9299 12.6667 8.34994 12.6667Z" fill="white"/>
</svg>
